<mxfile host="app.diagrams.net" modified="2024-04-04T09:47:16.306Z" agent="Mozilla/5.0 (Macintosh; Intel Mac OS X 10_15_7) AppleWebKit/537.36 (KHTML, like Gecko) Chrome/123.0.0.0 Safari/537.36" etag="e9O0k3mbMe_vmxYdvh3B" version="24.2.2" type="github">
  <diagram id="C5RBs43oDa-KdzZeNtuy" name="Page-1">
    <mxGraphModel dx="1026" dy="656" grid="1" gridSize="10" guides="1" tooltips="1" connect="1" arrows="1" fold="1" page="1" pageScale="1" pageWidth="827" pageHeight="1169" math="0" shadow="0">
      <root>
        <mxCell id="WIyWlLk6GJQsqaUBKTNV-0" />
        <mxCell id="WIyWlLk6GJQsqaUBKTNV-1" parent="WIyWlLk6GJQsqaUBKTNV-0" />
        <mxCell id="RZyStbtU9jrRcy8je79y-32" style="edgeStyle=orthogonalEdgeStyle;rounded=0;orthogonalLoop=1;jettySize=auto;html=1;entryX=0;entryY=0.5;entryDx=0;entryDy=0;" edge="1" parent="WIyWlLk6GJQsqaUBKTNV-1" source="RZyStbtU9jrRcy8je79y-5" target="RZyStbtU9jrRcy8je79y-9">
          <mxGeometry relative="1" as="geometry" />
        </mxCell>
        <mxCell id="RZyStbtU9jrRcy8je79y-5" value="Tabular Tokenizer" style="rounded=1;whiteSpace=wrap;html=1;rotation=90;fillColor=#e1d5e7;strokeColor=#9673a6;" vertex="1" parent="WIyWlLk6GJQsqaUBKTNV-1">
          <mxGeometry x="122" y="182" width="120" height="60" as="geometry" />
        </mxCell>
        <mxCell id="RZyStbtU9jrRcy8je79y-37" style="edgeStyle=orthogonalEdgeStyle;rounded=0;orthogonalLoop=1;jettySize=auto;html=1;entryX=0;entryY=0.75;entryDx=0;entryDy=0;" edge="1" parent="WIyWlLk6GJQsqaUBKTNV-1" source="RZyStbtU9jrRcy8je79y-6" target="RZyStbtU9jrRcy8je79y-14">
          <mxGeometry relative="1" as="geometry" />
        </mxCell>
        <mxCell id="RZyStbtU9jrRcy8je79y-6" value="Time serie tokenizer" style="rounded=1;whiteSpace=wrap;html=1;rotation=90;fillColor=#e1d5e7;strokeColor=#9673a6;" vertex="1" parent="WIyWlLk6GJQsqaUBKTNV-1">
          <mxGeometry x="122" y="377" width="120" height="60" as="geometry" />
        </mxCell>
        <mxCell id="RZyStbtU9jrRcy8je79y-7" value="" style="rounded=0;whiteSpace=wrap;html=1;fillColor=#d5e8d4;strokeColor=#82b366;" vertex="1" parent="WIyWlLk6GJQsqaUBKTNV-1">
          <mxGeometry x="288" y="164.5" width="42" height="19" as="geometry" />
        </mxCell>
        <mxCell id="RZyStbtU9jrRcy8je79y-8" value="" style="rounded=0;whiteSpace=wrap;html=1;fillColor=#d5e8d4;strokeColor=#82b366;" vertex="1" parent="WIyWlLk6GJQsqaUBKTNV-1">
          <mxGeometry x="288" y="183.5" width="42" height="19" as="geometry" />
        </mxCell>
        <mxCell id="RZyStbtU9jrRcy8je79y-9" value="" style="rounded=0;whiteSpace=wrap;html=1;fillColor=#d5e8d4;strokeColor=#82b366;" vertex="1" parent="WIyWlLk6GJQsqaUBKTNV-1">
          <mxGeometry x="288" y="202.5" width="42" height="19" as="geometry" />
        </mxCell>
        <mxCell id="RZyStbtU9jrRcy8je79y-10" value="" style="rounded=0;whiteSpace=wrap;html=1;fillColor=#d5e8d4;strokeColor=#82b366;" vertex="1" parent="WIyWlLk6GJQsqaUBKTNV-1">
          <mxGeometry x="288" y="221.5" width="42" height="19" as="geometry" />
        </mxCell>
        <mxCell id="RZyStbtU9jrRcy8je79y-11" value="" style="rounded=0;whiteSpace=wrap;html=1;fillColor=#d5e8d4;strokeColor=#82b366;" vertex="1" parent="WIyWlLk6GJQsqaUBKTNV-1">
          <mxGeometry x="288" y="240.5" width="42" height="19" as="geometry" />
        </mxCell>
        <mxCell id="RZyStbtU9jrRcy8je79y-12" value="" style="rounded=0;whiteSpace=wrap;html=1;fillColor=#f8cecc;strokeColor=#b85450;" vertex="1" parent="WIyWlLk6GJQsqaUBKTNV-1">
          <mxGeometry x="288" y="355" width="42" height="19" as="geometry" />
        </mxCell>
        <mxCell id="RZyStbtU9jrRcy8je79y-13" value="" style="rounded=0;whiteSpace=wrap;html=1;fillColor=#f8cecc;strokeColor=#b85450;" vertex="1" parent="WIyWlLk6GJQsqaUBKTNV-1">
          <mxGeometry x="288" y="374" width="42" height="19" as="geometry" />
        </mxCell>
        <mxCell id="RZyStbtU9jrRcy8je79y-14" value="" style="rounded=0;whiteSpace=wrap;html=1;fillColor=#f8cecc;strokeColor=#b85450;" vertex="1" parent="WIyWlLk6GJQsqaUBKTNV-1">
          <mxGeometry x="288" y="393" width="42" height="19" as="geometry" />
        </mxCell>
        <mxCell id="RZyStbtU9jrRcy8je79y-15" value="&lt;b&gt;[CLS]&lt;/b&gt;" style="rounded=0;whiteSpace=wrap;html=1;fillColor=#f8cecc;strokeColor=#b85450;" vertex="1" parent="WIyWlLk6GJQsqaUBKTNV-1">
          <mxGeometry x="288" y="412" width="42" height="19" as="geometry" />
        </mxCell>
        <mxCell id="RZyStbtU9jrRcy8je79y-74" style="edgeStyle=orthogonalEdgeStyle;rounded=0;orthogonalLoop=1;jettySize=auto;html=1;entryX=0.5;entryY=0;entryDx=0;entryDy=0;" edge="1" parent="WIyWlLk6GJQsqaUBKTNV-1" source="RZyStbtU9jrRcy8je79y-16" target="RZyStbtU9jrRcy8je79y-53">
          <mxGeometry relative="1" as="geometry" />
        </mxCell>
        <mxCell id="RZyStbtU9jrRcy8je79y-16" value="" style="rounded=1;whiteSpace=wrap;html=1;rotation=90;fillColor=#dae8fc;strokeColor=#6c8ebf;" vertex="1" parent="WIyWlLk6GJQsqaUBKTNV-1">
          <mxGeometry x="307" y="131.5" width="272" height="106" as="geometry" />
        </mxCell>
        <mxCell id="RZyStbtU9jrRcy8je79y-28" value="&lt;b&gt;&lt;font style=&quot;font-size: 23px;&quot;&gt;Q&lt;/font&gt;&lt;/b&gt;" style="ellipse;whiteSpace=wrap;html=1;aspect=fixed;" vertex="1" parent="WIyWlLk6GJQsqaUBKTNV-1">
          <mxGeometry x="403" y="80" width="80" height="80" as="geometry" />
        </mxCell>
        <mxCell id="RZyStbtU9jrRcy8je79y-29" value="&lt;span style=&quot;font-size: 23px;&quot;&gt;&lt;b&gt;K/V&lt;/b&gt;&lt;/span&gt;" style="ellipse;whiteSpace=wrap;html=1;aspect=fixed;" vertex="1" parent="WIyWlLk6GJQsqaUBKTNV-1">
          <mxGeometry x="403" y="197" width="80" height="80" as="geometry" />
        </mxCell>
        <mxCell id="RZyStbtU9jrRcy8je79y-41" value="Cross-attention blocks" style="text;html=1;align=center;verticalAlign=middle;resizable=0;points=[];autosize=1;strokeColor=none;fillColor=none;" vertex="1" parent="WIyWlLk6GJQsqaUBKTNV-1">
          <mxGeometry x="374.5" y="10" width="137" height="26" as="geometry" />
        </mxCell>
        <mxCell id="RZyStbtU9jrRcy8je79y-75" style="edgeStyle=orthogonalEdgeStyle;rounded=0;orthogonalLoop=1;jettySize=auto;html=1;entryX=0.5;entryY=1;entryDx=0;entryDy=0;" edge="1" parent="WIyWlLk6GJQsqaUBKTNV-1" source="RZyStbtU9jrRcy8je79y-43" target="RZyStbtU9jrRcy8je79y-61">
          <mxGeometry relative="1" as="geometry" />
        </mxCell>
        <mxCell id="RZyStbtU9jrRcy8je79y-43" value="" style="rounded=1;whiteSpace=wrap;html=1;rotation=90;fillColor=#dae8fc;strokeColor=#6c8ebf;" vertex="1" parent="WIyWlLk6GJQsqaUBKTNV-1">
          <mxGeometry x="307" y="435.5" width="272" height="106" as="geometry" />
        </mxCell>
        <mxCell id="RZyStbtU9jrRcy8je79y-44" value="&lt;b&gt;&lt;font style=&quot;font-size: 23px;&quot;&gt;Q&lt;/font&gt;&lt;/b&gt;" style="ellipse;whiteSpace=wrap;html=1;aspect=fixed;" vertex="1" parent="WIyWlLk6GJQsqaUBKTNV-1">
          <mxGeometry x="403" y="384" width="80" height="80" as="geometry" />
        </mxCell>
        <mxCell id="RZyStbtU9jrRcy8je79y-45" value="&lt;span style=&quot;font-size: 23px;&quot;&gt;&lt;b&gt;K/V&lt;/b&gt;&lt;/span&gt;" style="ellipse;whiteSpace=wrap;html=1;aspect=fixed;" vertex="1" parent="WIyWlLk6GJQsqaUBKTNV-1">
          <mxGeometry x="403" y="501" width="80" height="80" as="geometry" />
        </mxCell>
        <mxCell id="RZyStbtU9jrRcy8je79y-46" style="edgeStyle=orthogonalEdgeStyle;rounded=0;orthogonalLoop=1;jettySize=auto;html=1;fillColor=#d5e8d4;strokeColor=#82b366;" edge="1" parent="WIyWlLk6GJQsqaUBKTNV-1" source="RZyStbtU9jrRcy8je79y-9" target="RZyStbtU9jrRcy8je79y-28">
          <mxGeometry relative="1" as="geometry">
            <Array as="points">
              <mxPoint x="367" y="212" />
              <mxPoint x="367" y="120" />
            </Array>
          </mxGeometry>
        </mxCell>
        <mxCell id="RZyStbtU9jrRcy8je79y-47" style="edgeStyle=orthogonalEdgeStyle;rounded=0;orthogonalLoop=1;jettySize=auto;html=1;fillColor=#d5e8d4;strokeColor=#82b366;" edge="1" parent="WIyWlLk6GJQsqaUBKTNV-1" source="RZyStbtU9jrRcy8je79y-9" target="RZyStbtU9jrRcy8je79y-45">
          <mxGeometry relative="1" as="geometry">
            <Array as="points">
              <mxPoint x="367" y="212" />
              <mxPoint x="367" y="541" />
            </Array>
          </mxGeometry>
        </mxCell>
        <mxCell id="RZyStbtU9jrRcy8je79y-50" style="edgeStyle=orthogonalEdgeStyle;rounded=0;orthogonalLoop=1;jettySize=auto;html=1;fillColor=#f8cecc;strokeColor=#b85450;" edge="1" parent="WIyWlLk6GJQsqaUBKTNV-1" source="RZyStbtU9jrRcy8je79y-14" target="RZyStbtU9jrRcy8je79y-29">
          <mxGeometry relative="1" as="geometry">
            <mxPoint x="351" y="246" as="targetPoint" />
            <Array as="points">
              <mxPoint x="350" y="400" />
              <mxPoint x="350" y="240" />
            </Array>
          </mxGeometry>
        </mxCell>
        <mxCell id="RZyStbtU9jrRcy8je79y-51" style="edgeStyle=orthogonalEdgeStyle;rounded=0;orthogonalLoop=1;jettySize=auto;html=1;fillColor=#f8cecc;strokeColor=#b85450;" edge="1" parent="WIyWlLk6GJQsqaUBKTNV-1" source="RZyStbtU9jrRcy8je79y-14" target="RZyStbtU9jrRcy8je79y-44">
          <mxGeometry relative="1" as="geometry">
            <Array as="points">
              <mxPoint x="350" y="400" />
              <mxPoint x="350" y="420" />
            </Array>
          </mxGeometry>
        </mxCell>
        <mxCell id="RZyStbtU9jrRcy8je79y-53" value="" style="rounded=0;whiteSpace=wrap;html=1;fillColor=#d5e8d4;strokeColor=#82b366;" vertex="1" parent="WIyWlLk6GJQsqaUBKTNV-1">
          <mxGeometry x="550" y="221.5" width="42" height="19" as="geometry" />
        </mxCell>
        <mxCell id="RZyStbtU9jrRcy8je79y-54" value="" style="rounded=0;whiteSpace=wrap;html=1;fillColor=#d5e8d4;strokeColor=#82b366;" vertex="1" parent="WIyWlLk6GJQsqaUBKTNV-1">
          <mxGeometry x="550" y="240" width="42" height="19.5" as="geometry" />
        </mxCell>
        <mxCell id="RZyStbtU9jrRcy8je79y-55" value="" style="rounded=0;whiteSpace=wrap;html=1;fillColor=#d5e8d4;strokeColor=#82b366;" vertex="1" parent="WIyWlLk6GJQsqaUBKTNV-1">
          <mxGeometry x="550" y="259.5" width="42" height="19" as="geometry" />
        </mxCell>
        <mxCell id="RZyStbtU9jrRcy8je79y-56" value="" style="rounded=0;whiteSpace=wrap;html=1;fillColor=#d5e8d4;strokeColor=#82b366;" vertex="1" parent="WIyWlLk6GJQsqaUBKTNV-1">
          <mxGeometry x="550" y="278.5" width="42" height="19" as="geometry" />
        </mxCell>
        <mxCell id="RZyStbtU9jrRcy8je79y-57" value="" style="rounded=0;whiteSpace=wrap;html=1;fillColor=#d5e8d4;strokeColor=#82b366;" vertex="1" parent="WIyWlLk6GJQsqaUBKTNV-1">
          <mxGeometry x="550" y="297.5" width="42" height="19" as="geometry" />
        </mxCell>
        <mxCell id="RZyStbtU9jrRcy8je79y-58" value="" style="rounded=0;whiteSpace=wrap;html=1;fillColor=#f8cecc;strokeColor=#b85450;" vertex="1" parent="WIyWlLk6GJQsqaUBKTNV-1">
          <mxGeometry x="550" y="359.5" width="42" height="19" as="geometry" />
        </mxCell>
        <mxCell id="RZyStbtU9jrRcy8je79y-59" value="" style="rounded=0;whiteSpace=wrap;html=1;fillColor=#f8cecc;strokeColor=#b85450;" vertex="1" parent="WIyWlLk6GJQsqaUBKTNV-1">
          <mxGeometry x="550" y="378.5" width="42" height="19" as="geometry" />
        </mxCell>
        <mxCell id="RZyStbtU9jrRcy8je79y-60" value="" style="rounded=0;whiteSpace=wrap;html=1;fillColor=#f8cecc;strokeColor=#b85450;" vertex="1" parent="WIyWlLk6GJQsqaUBKTNV-1">
          <mxGeometry x="550" y="397.5" width="42" height="19" as="geometry" />
        </mxCell>
        <mxCell id="RZyStbtU9jrRcy8je79y-61" value="&lt;b&gt;[CLS]&lt;/b&gt;" style="rounded=0;whiteSpace=wrap;html=1;fillColor=#f8cecc;strokeColor=#b85450;" vertex="1" parent="WIyWlLk6GJQsqaUBKTNV-1">
          <mxGeometry x="550" y="416.5" width="42" height="19" as="geometry" />
        </mxCell>
        <mxCell id="RZyStbtU9jrRcy8je79y-63" value="" style="shape=orEllipse;perimeter=ellipsePerimeter;whiteSpace=wrap;html=1;backgroundOutline=1;" vertex="1" parent="WIyWlLk6GJQsqaUBKTNV-1">
          <mxGeometry x="559" y="326" width="24" height="23.5" as="geometry" />
        </mxCell>
        <mxCell id="RZyStbtU9jrRcy8je79y-64" value="" style="shape=flexArrow;endArrow=classic;html=1;rounded=0;fillColor=#1ba1e2;strokeColor=#006EAF;" edge="1" parent="WIyWlLk6GJQsqaUBKTNV-1">
          <mxGeometry width="50" height="50" relative="1" as="geometry">
            <mxPoint x="610" y="337.25" as="sourcePoint" />
            <mxPoint x="680" y="337.25" as="targetPoint" />
          </mxGeometry>
        </mxCell>
        <mxCell id="RZyStbtU9jrRcy8je79y-65" value="" style="rounded=0;whiteSpace=wrap;html=1;fillColor=#d5e8d4;strokeColor=#82b366;" vertex="1" parent="WIyWlLk6GJQsqaUBKTNV-1">
          <mxGeometry x="700" y="252.25" width="42" height="19" as="geometry" />
        </mxCell>
        <mxCell id="RZyStbtU9jrRcy8je79y-66" value="" style="rounded=0;whiteSpace=wrap;html=1;fillColor=#d5e8d4;strokeColor=#82b366;" vertex="1" parent="WIyWlLk6GJQsqaUBKTNV-1">
          <mxGeometry x="700" y="270.75" width="42" height="19.5" as="geometry" />
        </mxCell>
        <mxCell id="RZyStbtU9jrRcy8je79y-67" value="" style="rounded=0;whiteSpace=wrap;html=1;fillColor=#d5e8d4;strokeColor=#82b366;" vertex="1" parent="WIyWlLk6GJQsqaUBKTNV-1">
          <mxGeometry x="700" y="290.25" width="42" height="19" as="geometry" />
        </mxCell>
        <mxCell id="RZyStbtU9jrRcy8je79y-68" value="" style="rounded=0;whiteSpace=wrap;html=1;fillColor=#d5e8d4;strokeColor=#82b366;" vertex="1" parent="WIyWlLk6GJQsqaUBKTNV-1">
          <mxGeometry x="700" y="309.25" width="42" height="19" as="geometry" />
        </mxCell>
        <mxCell id="RZyStbtU9jrRcy8je79y-69" value="" style="rounded=0;whiteSpace=wrap;html=1;fillColor=#d5e8d4;strokeColor=#82b366;" vertex="1" parent="WIyWlLk6GJQsqaUBKTNV-1">
          <mxGeometry x="700" y="328.25" width="42" height="19" as="geometry" />
        </mxCell>
        <mxCell id="RZyStbtU9jrRcy8je79y-70" value="" style="rounded=0;whiteSpace=wrap;html=1;fillColor=#f8cecc;strokeColor=#b85450;" vertex="1" parent="WIyWlLk6GJQsqaUBKTNV-1">
          <mxGeometry x="700" y="347.25" width="42" height="19" as="geometry" />
        </mxCell>
        <mxCell id="RZyStbtU9jrRcy8je79y-71" value="" style="rounded=0;whiteSpace=wrap;html=1;fillColor=#f8cecc;strokeColor=#b85450;" vertex="1" parent="WIyWlLk6GJQsqaUBKTNV-1">
          <mxGeometry x="700" y="366.25" width="42" height="19" as="geometry" />
        </mxCell>
        <mxCell id="RZyStbtU9jrRcy8je79y-72" value="" style="rounded=0;whiteSpace=wrap;html=1;fillColor=#f8cecc;strokeColor=#b85450;" vertex="1" parent="WIyWlLk6GJQsqaUBKTNV-1">
          <mxGeometry x="700" y="385.25" width="42" height="19" as="geometry" />
        </mxCell>
        <mxCell id="RZyStbtU9jrRcy8je79y-73" value="&lt;b&gt;[CLS]&lt;/b&gt;" style="rounded=0;whiteSpace=wrap;html=1;fillColor=#f8cecc;strokeColor=#b85450;" vertex="1" parent="WIyWlLk6GJQsqaUBKTNV-1">
          <mxGeometry x="700" y="404.25" width="42" height="19" as="geometry" />
        </mxCell>
      </root>
    </mxGraphModel>
  </diagram>
</mxfile>
